<?xml version="1.0" encoding="UTF-8" standalone="no"?>
<!--
Created with Inkscape (http://www.inkscape.org/)
  © 2026 William C. Canin
  This artwork is protected by copyright.
  Unauthorized use, copying, or modification is prohibited.
-->

<svg
   width="1009mm"
   height="270mm"
   viewBox="0 0 1009 270"
   version="1.1"
   id="svg1"
   xml:space="preserve"
   inkscape:version="1.4.4 (dcaf3e7d9e, 2026-05-05)"
   sodipodi:docname="orbitbits-text.svg"
   inkscape:export-filename="orbitbits-text.png"
   inkscape:export-xdpi="96"
   inkscape:export-ydpi="96"
   xmlns:inkscape="http://www.inkscape.org/namespaces/inkscape"
   xmlns:sodipodi="http://sodipodi.sourceforge.net/DTD/sodipodi-0.dtd"
   xmlns="http://www.w3.org/2000/svg"
   xmlns:svg="http://www.w3.org/2000/svg"
   xmlns:rdf="http://www.w3.org/1999/02/22-rdf-syntax-ns#"
   xmlns:cc="http://creativecommons.org/ns#"
   xmlns:dc="http://purl.org/dc/elements/1.1/"><title
     id="title1">EvolvBits</title><sodipodi:namedview
     id="namedview1"
     pagecolor="#ffffff"
     bordercolor="#000000"
     borderopacity="0.25"
     inkscape:showpageshadow="2"
     inkscape:pageopacity="0.0"
     inkscape:pagecheckerboard="0"
     inkscape:deskcolor="#d1d1d1"
     inkscape:document-units="mm"
     showgrid="false"
     inkscape:zoom="0.125"
     inkscape:cx="1644"
     inkscape:cy="344"
     inkscape:window-width="1427"
     inkscape:window-height="991"
     inkscape:window-x="26"
     inkscape:window-y="23"
     inkscape:window-maximized="0"
     inkscape:current-layer="g4" /><defs
     id="defs1" /><g
     inkscape:groupmode="layer"
     id="layer1"
     inkscape:label="orbitbits-text"
     style="display:inline"><rect
       style="display:inline;fill:#0d1117;fill-opacity:1;stroke:none;stroke-width:10.9725;stroke-linecap:round;paint-order:fill markers stroke"
       id="rect1"
       width="1009.3744"
       height="270"
       x="0"
       y="0"
       inkscape:label="bg"
       ry="30.682541" /><text
       xml:space="preserve"
       style="display:inline;font-style:normal;font-variant:normal;font-weight:normal;font-stretch:normal;font-size:17.6389px;font-family:'Space Grotesk';-inkscape-font-specification:'Space Grotesk';writing-mode:lr-tb;direction:ltr;fill:#14c9b7;stroke:#14c9b7;stroke-width:2;stroke-linecap:round;stroke-linejoin:round;stroke-miterlimit:1"
       x="618.16583"
       y="253.56163"
       id="text3"
       inkscape:label="phrase"><tspan
         sodipodi:role="line"
         id="tspan3"
         style="font-style:normal;font-variant:normal;font-weight:500;font-stretch:normal;font-size:17.6389px;font-family:'Space Grotesk';-inkscape-font-specification:'Space Grotesk Medium';fill:#ffffff;fill-opacity:1;stroke:none;stroke-width:2"
         x="618.16583"
         y="253.56163">Everything revolves around your workflow.</tspan></text><rect
       style="display:inline;fill:#ffffff;fill-opacity:1;stroke:#ffffff;stroke-width:2.54258;stroke-linecap:round;stroke-linejoin:round;stroke-miterlimit:1;stroke-dasharray:none;stroke-opacity:1"
       id="rect2-5"
       width="26.8416"
       height="27.988234"
       x="487.17468"
       y="80.381706"
       ry="0"
       inkscape:label="orbit-dot" /><rect
       style="display:inline;fill:#26c7d9;fill-opacity:1;stroke:#26c7d9;stroke-width:2.54258;stroke-linecap:round;stroke-linejoin:round;stroke-miterlimit:1;stroke-dasharray:none;stroke-opacity:1"
       id="rect2-5-6"
       width="26.8416"
       height="27.988234"
       x="758.50879"
       y="79.587952"
       ry="0"
       inkscape:label="bits-dot" /><path
       style="font-weight:bold;font-size:211.667px;font-family:'Baloo 2';-inkscape-font-specification:'Baloo 2 Bold';fill:#ffffff;stroke:none;stroke-width:2;stroke-linecap:round;stroke-linejoin:round;stroke-miterlimit:1"
       d="m 309.08818,152.27776 v 26.45837 h -31.32672 v -30.26838 c 0,-3.95112 0.91722,-7.26724 2.75167,-9.94835 1.97556,-2.82223 4.65668,-5.29167 8.04335,-7.40834 4.65667,-2.82223 10.23057,-5.00945 16.72169,-6.56168 6.63223,-1.69334 13.54669,-2.54001 20.74337,-2.54001 14.39335,0 21.59003,4.79779 21.59003,14.39336 0,2.25778 -0.35278,4.37445 -1.05833,6.35001 -0.56445,1.97556 -1.27,3.6689 -2.11667,5.08001 -1.41111,-0.28222 -3.17501,-0.49389 -5.29168,-0.635 -1.97556,-0.28223 -4.16279,-0.42334 -6.56168,-0.42334 -4.23334,0 -8.46668,0.49389 -12.70002,1.48167 -4.23334,0.98778 -7.83168,2.32834 -10.79501,4.02168 z m -31.32672,18.41503 31.32672,0.635 v 55.03342 c -1.41111,0.42333 -3.38667,0.77611 -5.92668,1.05833 -2.54001,0.42334 -5.29168,0.63501 -8.25501,0.63501 -5.92668,0 -10.30113,-1.05834 -13.12336,-3.17501 -2.68111,-2.11667 -4.02167,-5.92668 -4.02167,-11.43002 z m 139.27675,-48.89508 c 9.17223,0 17.4978,2.04611 24.9767,6.13834 7.4789,3.95112 13.40558,9.94835 17.78003,17.9917 4.37445,7.90223 6.56168,17.70947 6.56168,29.42171 0,11.85335 -2.32834,21.8017 -6.98501,29.84505 -4.51557,8.04335 -10.93613,14.18169 -19.2617,18.41503 -8.32557,4.09223 -18.06225,6.13834 -29.21005,6.13834 -8.7489,0 -16.29836,-1.05833 -22.64837,-3.175 -6.20889,-2.11667 -11.43001,-4.58612 -15.66335,-7.40835 -2.96334,-2.11667 -5.22112,-4.445 -6.77335,-6.98501 -1.41111,-2.54001 -2.11667,-5.50334 -2.11667,-8.89001 v -67.09845 h 31.11505 v 64.77011 c 1.69333,0.98778 3.88056,1.905 6.56168,2.75167 2.68111,0.84667 5.71501,1.27 9.10168,1.27 7.19668,0 12.91169,-2.46945 17.14503,-7.40834 4.37445,-4.9389 6.56167,-12.34725 6.56167,-22.22504 0,-10.01891 -2.11667,-17.28614 -6.35001,-21.8017 -4.09223,-4.65667 -9.59557,-6.98501 -16.51002,-6.98501 -4.51557,0 -8.53724,0.84667 -12.06502,2.54 -3.52779,1.69334 -6.56168,3.59834 -9.10168,5.71501 l -0.84667,-25.40004 c 3.24556,-1.83445 7.19668,-3.52778 11.85335,-5.08001 4.79779,-1.69333 10.08946,-2.54 15.87503,-2.54 z m -22.01337,21.8017 H 363.69812 V 88.777654 c 1.27,-0.423334 3.175,-0.846668 5.71501,-1.270002 2.54001,-0.423334 5.29168,-0.635001 8.25501,-0.635001 6.06779,0 10.44224,1.058335 13.12336,3.175005 2.82223,2.11667 4.23334,5.997231 4.23334,11.641684 z m 91.86347,27.09338 h 31.32672 v 55.66842 c -1.27001,0.42333 -3.17501,0.77611 -5.71501,1.05833 -2.54001,0.42334 -5.29168,0.63501 -8.25502,0.63501 -6.06779,0 -10.51279,-1.05834 -13.33502,-3.17501 -2.68111,-2.11667 -4.02167,-5.92668 -4.02167,-11.43002 z m 31.32672,16.29836 h -31.32672 v -60.74844 c 1.27,-0.42333 3.175,-0.84667 5.71501,-1.27 2.68111,-0.42333 5.50334,-0.635 8.46668,-0.635 6.06779,0 10.44224,1.05834 13.12335,3.17501 2.68112,1.97555 4.02168,5.85611 4.02168,11.64168 z m 25.61155,-16.29836 h 31.11505 v 22.64837 c 0,3.95111 1.27,6.84389 3.81001,8.67834 2.54,1.83445 6.13834,2.75167 10.79501,2.75167 2.11667,0 4.37446,-0.21167 6.77335,-0.635 2.54,-0.56444 4.65667,-1.19944 6.35001,-1.905 1.12889,1.27 2.11667,2.82222 2.96334,4.65667 0.98777,1.83445 1.48166,3.95112 1.48166,6.35001 0,4.79779 -1.97556,8.74891 -5.92667,11.85336 -3.95112,3.10445 -10.58335,4.65667 -19.8967,4.65667 -11.85335,0 -21.09615,-2.68112 -27.72838,-8.04335 -6.49112,-5.36223 -9.73668,-14.11113 -9.73668,-26.2467 z m 19.8967,-19.2617 v -24.13004 h 40.64006 c 0.70556,1.12889 1.41112,2.75167 2.11667,4.86834 0.70556,2.11667 1.05834,4.44501 1.05834,6.98501 0,4.23334 -0.98778,7.33779 -2.96334,9.31335 -1.83445,1.97556 -4.37445,2.96334 -7.62001,2.96334 z m 11.21835,24.55337 H 543.82658 V 99.996006 c 1.41111,-0.423334 3.38667,-0.846668 5.92668,-1.270003 2.54,-0.564445 5.22111,-0.846668 8.04334,-0.846668 6.06779,0 10.44224,1.058335 13.12336,3.175005 2.68111,2.11667 4.02167,5.99724 4.02167,11.64169 z"
       id="path3"
       sodipodi:nodetypes="cccscccsscccsscccccscscsccsccscccscccsscscsscccscccsscscccccscscccccscscccssscccssscsccccsscscccccsssc"
       inkscape:label="rbit" /><path
       style="font-weight:bold;font-size:211.667px;font-family:'Baloo 2';-inkscape-font-specification:'Baloo 2 Bold';display:inline;fill:#26c7d9;stroke:none;stroke-width:2;stroke-linecap:round;stroke-linejoin:round;stroke-miterlimit:1"
       d="m 696.43866,149.52609 v 22.86003 h -47.20175 v -22.86003 z m -15.87503,22.86003 2.54,-17.56836 c 11.71225,0 21.44893,1.41111 29.21005,4.23334 7.76113,2.82223 13.54669,6.77334 17.3567,11.85335 3.95111,5.08001 5.92667,11.21836 5.92667,18.41503 0,13.6878 -5.08001,23.84782 -15.24002,30.48005 -10.16002,6.63223 -24.62393,9.94835 -43.39174,9.94835 -3.38667,0 -7.26723,-0.14111 -11.64168,-0.42333 -4.23335,-0.28223 -8.6078,-0.77612 -13.12336,-1.48167 -4.37445,-0.70556 -8.39613,-1.69334 -12.06502,-2.96334 -7.33779,-2.68111 -11.00668,-7.40834 -11.00668,-14.18169 V 109.52102 c 0,-2.68111 0.77611,-4.79778 2.32833,-6.35001 1.55223,-1.55223 3.59834,-2.75167 6.13835,-3.598338 4.79779,-1.693337 10.58335,-2.892783 17.35669,-3.59834 6.91446,-0.705557 13.97003,-1.058335 21.1667,-1.058335 17.49781,0 30.97394,3.033894 40.4284,9.101683 9.59557,6.06779 14.39336,15.24002 14.39336,27.51671 0,6.77335 -1.97556,12.55891 -5.92668,17.35669 -3.95112,4.79779 -9.73668,8.46668 -17.35669,11.00669 -7.4789,2.54 -16.58058,3.81 -27.30505,3.81 l -1.48167,-14.18168 c 6.77335,0 11.7828,-1.34056 15.02836,-4.02168 3.24556,-2.68111 4.86834,-6.49112 4.86834,-11.43002 0,-4.65667 -1.905,-8.25501 -5.71501,-10.79501 -3.66889,-2.54001 -9.24279,-3.81001 -16.72169,-3.81001 -2.68111,0 -5.50334,0.14111 -8.46668,0.42333 -2.96334,0.14111 -5.43279,0.42334 -7.40835,0.84667 v 82.33847 c 2.39889,0.56445 5.29168,0.98778 8.67835,1.27 3.52779,0.28222 6.8439,0.42333 9.94835,0.42333 7.05557,0 12.70002,-1.34056 16.93336,-4.02167 4.37445,-2.82223 6.56168,-7.05557 6.56168,-12.70002 0,-5.36223 -1.83445,-9.31335 -5.50334,-11.85335 -3.6689,-2.54001 -9.17224,-3.81001 -16.51003,-3.81001 z M 760.1505,107.82768 C 0,0 0,0 760.1505,107.82768 Z m -2.96333,62.86511 h 31.32671 v 55.66842 c -1.27,0.42333 -3.175,0.77611 -5.71501,1.05833 -2.54,0.42334 -5.29167,0.63501 -8.25501,0.63501 -6.06779,0 -10.51279,-1.05834 -13.33502,-3.17501 -2.68111,-2.11667 -4.02167,-5.92668 -4.02167,-11.43002 z m 31.32671,16.29836 h -31.32671 v -60.74844 c 1.27,-0.42333 3.175,-0.84667 5.71501,-1.27 2.68111,-0.42333 5.50334,-0.635 8.46668,-0.635 6.06779,0 10.44224,1.05834 13.12335,3.17501 2.68111,1.97555 4.02167,5.85611 4.02167,11.64168 z m 25.61159,-16.29836 h 31.11505 v 22.64837 c 0,3.95111 1.27,6.84389 3.81001,8.67834 2.54,1.83445 6.13834,2.75167 10.79501,2.75167 2.11667,0 4.37446,-0.21167 6.77335,-0.635 2.54,-0.56444 4.65667,-1.19944 6.35001,-1.905 1.12889,1.27 2.11667,2.82222 2.96334,4.65667 0.98777,1.83445 1.48166,3.95112 1.48166,6.35001 0,4.79779 -1.97556,8.74891 -5.92667,11.85336 -3.95112,3.10445 -10.58335,4.65667 -19.8967,4.65667 -11.85335,0 -21.09615,-2.68112 -27.72838,-8.04335 -6.49112,-5.36223 -9.73668,-14.11113 -9.73668,-26.2467 z m 19.8967,-19.2617 v -24.13004 h 40.64006 c 0.70556,1.12889 1.41112,2.75167 2.11667,4.86834 0.70556,2.11667 1.05834,4.44501 1.05834,6.98501 0,4.23334 -0.98778,7.33779 -2.96334,9.31335 -1.83445,1.97556 -4.37445,2.96334 -7.62001,2.96334 z m 11.21835,24.55337 H 814.12547 V 99.996006 c 1.41111,-0.423334 3.38667,-0.846668 5.92668,-1.270003 2.54,-0.564445 5.22111,-0.846668 8.04334,-0.846668 6.06779,0 10.44224,1.058335 13.12336,3.175005 2.68111,2.11667 4.02167,5.99724 4.02167,11.64169 z m 134.19717,20.95503 c 0,10.30113 -3.88056,18.41504 -11.64168,24.34171 -7.76113,5.78557 -19.05003,8.67835 -33.86672,8.67835 -11.57113,0 -21.09615,-1.69334 -28.57505,-5.08001 -7.4789,-3.38667 -11.21835,-8.39613 -11.21835,-15.02836 0,-2.96333 0.635,-5.50334 1.905,-7.62001 1.27,-2.25778 2.89278,-4.02167 4.86834,-5.29168 3.95112,2.25779 8.53724,4.37446 13.75836,6.35002 5.36223,1.83445 11.43001,2.75167 18.20336,2.75167 10.30113,0 15.45169,-2.96334 15.45169,-8.89002 0,-2.54 -0.91722,-4.51556 -2.75167,-5.92667 -1.83445,-1.55223 -4.86834,-2.68112 -9.10168,-3.38668 l -8.89001,-2.11667 c -11.28891,-2.39889 -19.75559,-6.06779 -25.40005,-11.00668 -5.50334,-5.08001 -8.25501,-11.99446 -8.25501,-20.74337 0,-9.87779 3.95112,-17.70947 11.85335,-23.49504 8.04335,-5.92667 18.83837,-8.89001 32.38506,-8.89001 6.77334,0 12.91168,0.70556 18.41503,2.11667 5.64445,1.27 10.08946,3.31611 13.33502,6.13834 3.24556,2.68112 4.86834,6.06779 4.86834,10.16002 0,2.82223 -0.56445,5.29168 -1.69334,7.40835 -1.12889,2.11667 -2.61055,3.88056 -4.445,5.29167 -1.55223,-0.98778 -3.95112,-2.04611 -7.19668,-3.175 -3.10445,-1.12889 -6.56168,-2.04612 -10.37169,-2.75168 -3.66889,-0.70555 -7.12612,-1.05833 -10.37168,-1.05833 -5.08001,0 -9.03112,0.70556 -11.85335,2.11667 -2.82223,1.27 -4.23334,3.31611 -4.23334,6.13834 0,1.83445 0.77611,3.45723 2.32833,4.86834 1.69334,1.27001 4.58612,2.32834 8.67835,3.17501 l 8.46668,2.11667 c 12.55891,2.82223 21.59004,6.91446 27.09338,12.27669 5.50334,5.22111 8.25501,12.06501 8.25501,20.53169 z"
       id="path4"
       sodipodi:nodetypes="cccccccscssscccsssccscsscccsscsccccscsscccccccscscccccscscccssscccssscsccccsscscccccssscscssscccssccccscsccsscccscsccccs"
       inkscape:label="bits" /></g><g
     inkscape:groupmode="layer"
     id="g4"
     inkscape:label="orbitbits"
     style="display:inline"><path
       d="m 170.15725,57.801733 a 88.328181,89.521813 0 0 0 -89.409243,88.141597 88.328181,89.521813 0 0 0 86.699283,90.88033 88.328181,89.521813 0 0 0 89.92685,-87.59992 l 0.0159,-1.06728 A 88.328181,89.521813 0 0 0 170.15716,57.801733 Z m -0.73479,36.647806 a 50.951122,51.639659 0 0 1 50.31912,52.119591 l -0.007,0.61615 a 50.951122,51.639659 0 0 1 -51.87456,50.53068 50.951122,51.639659 0 0 1 -50.01143,-52.42325 50.951122,51.639659 0 0 1 51.57473,-50.843171 z"
       style="display:inline;fill:#ffffff;fill-opacity:1;stroke:none;stroke-width:3.10113;stroke-linecap:round;stroke-linejoin:bevel;stroke-miterlimit:1;stroke-opacity:1"
       id="path1-0"
       inkscape:label="O-light" /><path
       d="m 296.91769,47.227079 c 1.23964,15.116887 -6.66335,23.26314 -25.88475,22.920823 -5.80369,16.481969 -35.86846,49.762028 -89.46156,72.966158 -49.71074,24.67254 -162.938928,43.23882 -103.797303,-25.46485 0.07774,-0.0886 -56.244391,40.51229 -49.666776,59.76391 8.174104,23.92431 76.795119,16.43375 153.434539,-16.74872 76.63992,-33.18266 132.40415,-79.547219 124.68669,-103.669425 l -0.1769,-0.517459 c -1.41633,-3.893558 -9.13394,-9.250437 -9.13394,-9.250437 z"
       style="display:inline;fill:#26c7d9;stroke:#26c7d9;stroke-width:2.05615;stroke-linecap:round;stroke-linejoin:round;stroke-miterlimit:1;stroke-opacity:1"
       id="path2-62"
       sodipodi:nodetypes="ccccssccc"
       inkscape:label="ring" /><rect
       style="display:inline;fill:#26c7d9;fill-opacity:1;stroke:#26c7d9;stroke-width:2.43934;stroke-linecap:round;stroke-linejoin:bevel;stroke-miterlimit:1;stroke-dasharray:none;stroke-opacity:1"
       id="rect2-61"
       width="25.751715"
       height="26.851788"
       x="261.72015"
       y="32.43272"
       ry="6.0659156"
       inkscape:label="bit-3" /><rect
       style="display:inline;fill:#26c7d9;fill-opacity:1;stroke:#26c7d9;stroke-width:1.86487;stroke-linecap:round;stroke-linejoin:bevel;stroke-miterlimit:1;stroke-dasharray:none;stroke-opacity:1"
       id="rect3-8"
       width="19.687042"
       height="20.528051"
       x="234.35919"
       y="37.375145"
       ry="4.6373596"
       inkscape:label="bit-2" /><rect
       style="display:inline;fill:#26c7d9;fill-opacity:1;stroke:#26c7d9;stroke-width:1.44359;stroke-linecap:round;stroke-linejoin:bevel;stroke-miterlimit:1;stroke-dasharray:none;stroke-opacity:1"
       id="rect4-7"
       width="15.239624"
       height="15.890638"
       x="211.66396"
       y="50.454571"
       ry="3.5897517"
       inkscape:label="bit-1" /></g><metadata
     id="metadata1"><rdf:RDF><cc:Work
         rdf:about=""><dc:creator><cc:Agent><dc:title>William C. Canin</dc:title></cc:Agent></dc:creator><dc:rights><cc:Agent><dc:title>© 2026 William C. Canin. Unauthorized use prohibited.</dc:title></cc:Agent></dc:rights><dc:publisher><cc:Agent><dc:title>William C. Canin</dc:title></cc:Agent></dc:publisher><dc:title>OrbitBits</dc:title></cc:Work></rdf:RDF></metadata></svg>
