<?xml version="1.0" encoding="UTF-8" standalone="no"?>
<!--
Created with Inkscape (http://www.inkscape.org/)
  © 2026 William C. Canin
  This artwork is protected by copyright.
  Unauthorized use, copying, or modification is prohibited.
-->

<svg
   width="270mm"
   height="270mm"
   viewBox="0 0 270 270"
   version="1.1"
   id="svg1"
   xml:space="preserve"
   inkscape:version="1.4.4 (dcaf3e7d9e, 2026-05-05)"
   sodipodi:docname="orbitbits-logo-light.svg"
   xmlns:inkscape="http://www.inkscape.org/namespaces/inkscape"
   xmlns:sodipodi="http://sodipodi.sourceforge.net/DTD/sodipodi-0.dtd"
   xmlns="http://www.w3.org/2000/svg"
   xmlns:svg="http://www.w3.org/2000/svg"
   xmlns:rdf="http://www.w3.org/1999/02/22-rdf-syntax-ns#"
   xmlns:cc="http://creativecommons.org/ns#"
   xmlns:dc="http://purl.org/dc/elements/1.1/"><title
     id="title1">EvolvBits</title><sodipodi:namedview
     id="namedview1"
     pagecolor="#ffffff"
     bordercolor="#000000"
     borderopacity="0.25"
     inkscape:showpageshadow="2"
     inkscape:pageopacity="0.0"
     inkscape:pagecheckerboard="0"
     inkscape:deskcolor="#d1d1d1"
     inkscape:document-units="mm"
     showgrid="false"
     inkscape:zoom="0.5"
     inkscape:cx="582"
     inkscape:cy="324"
     inkscape:window-width="1749"
     inkscape:window-height="991"
     inkscape:window-x="26"
     inkscape:window-y="23"
     inkscape:window-maximized="0"
     inkscape:current-layer="g121" /><defs
     id="defs1" /><g
     inkscape:groupmode="layer"
     id="g117"
     inkscape:label="orbitbits-light__bg-dark"
     style="display:none"
     sodipodi:insensitive="true"><rect
       style="display:inline;fill:#1f4448;fill-opacity:1;stroke:none;stroke-width:5.67497;stroke-linecap:round;paint-order:fill markers stroke"
       id="rect2-7"
       width="270"
       height="270"
       x="0"
       y="0"
       inkscape:label="bg"
       sodipodi:insensitive="true" /><path
       d="m 137.70595,61.247163 a 82.03918,83.147827 0 0 0 -83.043259,81.865887 82.03918,83.147827 0 0 0 80.526269,84.40963 82.03918,83.147827 0 0 0 83.52401,-81.36279 l 0.0148,-0.99129 A 82.03918,83.147827 0 0 0 137.70588,61.247163 Z m -0.68247,34.038469 a 47.323385,47.962895 0 0 1 46.73639,48.408658 l -0.007,0.57229 A 47.323385,47.962895 0 0 1 135.57178,191.19944 47.323385,47.962895 0 0 1 89.121184,142.50876 47.323385,47.962895 0 0 1 137.02378,95.285632 Z"
       style="display:inline;fill:#ffffff;fill-opacity:1;stroke:none;stroke-width:2.88032;stroke-linecap:round;stroke-linejoin:bevel;stroke-miterlimit:1;stroke-opacity:1"
       id="path114"
       inkscape:label="O" /><path
       d="m 255.44099,51.425428 c -0.58709,6.070318 2.32467,21.149813 -4.80163,21.179693 l -18.38285,0.07708 c -0.28812,0.02941 -0.57442,0.03977 -0.85723,0.03207 3.20349,16.294643 -33.31462,46.218959 -83.09189,67.770969 -46.17129,22.91584 -151.3376032,40.16018 -96.406886,-23.65177 0.07215,-0.0823 -52.2397681,37.62782 -46.1304844,55.50872 C 13.362127,194.56308 77.0973,187.60582 148.27995,156.78597 219.4631,125.96592 271.25688,82.902531 264.08892,60.497834 l -0.1643,-0.480612 c -1.3155,-3.61633 -4.1936,-6.492547 -8.48363,-8.591794 z"
       style="display:inline;opacity:1;fill:#26c7d9;stroke:#26c7d9;stroke-width:1.90974;stroke-linecap:round;stroke-linejoin:round;stroke-miterlimit:1;stroke-opacity:1"
       id="path115"
       sodipodi:nodetypes="csccccssccsc"
       inkscape:label="ring" /><rect
       style="display:inline;fill:#26c7d9;fill-opacity:1;stroke:#26c7d9;stroke-width:2.26567;stroke-linecap:round;stroke-linejoin:bevel;stroke-miterlimit:1;stroke-dasharray:none;stroke-opacity:1"
       id="rect115"
       width="23.918182"
       height="24.939934"
       x="225.42639"
       y="41.7701"
       ry="5.6340203"
       inkscape:label="bit-3" /><rect
       style="display:inline;fill:#26c7d9;fill-opacity:1;stroke:#26c7d9;stroke-width:1.7321;stroke-linecap:round;stroke-linejoin:bevel;stroke-miterlimit:1;stroke-dasharray:none;stroke-opacity:1"
       id="rect116"
       width="18.28532"
       height="19.066446"
       x="198.88646"
       y="43.261169"
       ry="4.307178"
       inkscape:label="bit-2" /><rect
       style="display:inline;fill:#26c7d9;fill-opacity:1;stroke:#26c7d9;stroke-width:1.3408;stroke-linecap:round;stroke-linejoin:bevel;stroke-miterlimit:1;stroke-dasharray:none;stroke-opacity:1"
       id="rect117"
       width="14.154557"
       height="14.759218"
       x="176.25737"
       y="54.423111"
       ry="3.3341603"
       inkscape:label="bit-1" /></g><g
     inkscape:groupmode="layer"
     id="layer2"
     inkscape:label="orbitbits-dark__bg-white"
     style="display:none"
     sodipodi:insensitive="true"><rect
       style="display:inline;fill:#ffffff;fill-opacity:1;stroke:none;stroke-width:5.67497;stroke-linecap:round;paint-order:fill markers stroke"
       id="rect33"
       width="270"
       height="270"
       x="0"
       y="0"
       inkscape:label="bg"
       sodipodi:insensitive="true" /><path
       d="m 137.70595,61.247163 a 82.03918,83.147827 0 0 0 -83.043259,81.865887 82.03918,83.147827 0 0 0 80.526269,84.40963 82.03918,83.147827 0 0 0 83.52401,-81.36279 l 0.0148,-0.99129 A 82.03918,83.147827 0 0 0 137.70588,61.247163 Z m -0.68247,34.038469 a 47.323385,47.962895 0 0 1 46.73639,48.408658 l -0.007,0.57229 A 47.323385,47.962895 0 0 1 135.57178,191.19944 47.323385,47.962895 0 0 1 89.121184,142.50876 47.323385,47.962895 0 0 1 137.02378,95.285632 Z"
       style="display:inline;fill:#111111;fill-opacity:1;stroke:none;stroke-width:2.88032;stroke-linecap:round;stroke-linejoin:bevel;stroke-miterlimit:1;stroke-opacity:1"
       id="path45-7"
       inkscape:label="O" /><path
       d="m 255.44099,51.425428 c -0.58709,6.070318 2.32467,21.149813 -4.80163,21.179693 l -18.38285,0.07708 c -0.28812,0.02941 -0.57442,0.03977 -0.85723,0.03207 3.20349,16.294643 -33.31462,46.218959 -83.09189,67.770969 -46.17129,22.91584 -151.3376032,40.16018 -96.406886,-23.65177 0.07215,-0.0823 -52.2397681,37.62782 -46.1304844,55.50872 C 13.362127,194.56308 77.0973,187.60582 148.27995,156.78597 219.4631,125.96592 271.25688,82.902531 264.08892,60.497834 l -0.1643,-0.480612 c -1.3155,-3.61633 -4.1936,-6.492547 -8.48363,-8.591794 z"
       style="display:inline;opacity:1;fill:#26c7d9;stroke:#26c7d9;stroke-width:1.90974;stroke-linecap:round;stroke-linejoin:round;stroke-miterlimit:1;stroke-opacity:1"
       id="path94"
       sodipodi:nodetypes="csccccssccsc"
       inkscape:label="ring" /><rect
       style="display:inline;fill:#26c7d9;fill-opacity:1;stroke:#26c7d9;stroke-width:2.26567;stroke-linecap:round;stroke-linejoin:bevel;stroke-miterlimit:1;stroke-dasharray:none;stroke-opacity:1"
       id="rect31-9-7-6-8-0"
       width="23.918182"
       height="24.939934"
       x="225.42639"
       y="41.7701"
       ry="5.6340203"
       inkscape:label="bit-3" /><rect
       style="display:inline;fill:#26c7d9;fill-opacity:1;stroke:#26c7d9;stroke-width:1.7321;stroke-linecap:round;stroke-linejoin:bevel;stroke-miterlimit:1;stroke-dasharray:none;stroke-opacity:1"
       id="rect31-9-7-6-8-0-6"
       width="18.28532"
       height="19.066446"
       x="198.88646"
       y="43.261169"
       ry="4.307178"
       inkscape:label="bit-2" /><rect
       style="display:inline;fill:#26c7d9;fill-opacity:1;stroke:#26c7d9;stroke-width:1.3408;stroke-linecap:round;stroke-linejoin:bevel;stroke-miterlimit:1;stroke-dasharray:none;stroke-opacity:1"
       id="rect31-9-7-6-8-0-2"
       width="14.154557"
       height="14.759218"
       x="176.25737"
       y="54.423111"
       ry="3.3341603"
       inkscape:label="bit-1" /></g><g
     inkscape:groupmode="layer"
     id="g124"
     inkscape:label="orbitbits-dark__transparent"
     style="display:none"><path
       d="m 137.70595,61.247163 a 82.03918,83.147827 0 0 0 -83.043259,81.865887 82.03918,83.147827 0 0 0 80.526269,84.40963 82.03918,83.147827 0 0 0 83.52401,-81.36279 l 0.0148,-0.99129 A 82.03918,83.147827 0 0 0 137.70588,61.247163 Z m -0.68247,34.038469 a 47.323385,47.962895 0 0 1 46.73639,48.408658 l -0.007,0.57229 A 47.323385,47.962895 0 0 1 135.57178,191.19944 47.323385,47.962895 0 0 1 89.121184,142.50876 47.323385,47.962895 0 0 1 137.02378,95.285632 Z"
       style="display:inline;fill:#000000;fill-opacity:1;stroke:none;stroke-width:2.88032;stroke-linecap:round;stroke-linejoin:bevel;stroke-miterlimit:1;stroke-opacity:1"
       id="path121"
       inkscape:label="O" /><path
       d="m 255.44099,51.425428 c -0.58709,6.070318 2.32467,21.149813 -4.80163,21.179693 l -18.38285,0.07708 c -0.28812,0.02941 -0.57442,0.03977 -0.85723,0.03207 3.20349,16.294643 -33.31462,46.218959 -83.09189,67.770969 -46.17129,22.91584 -151.3376032,40.16018 -96.406886,-23.65177 0.07215,-0.0823 -52.2397681,37.62782 -46.1304844,55.50872 C 13.362127,194.56308 77.0973,187.60582 148.27995,156.78597 219.4631,125.96592 271.25688,82.902531 264.08892,60.497834 l -0.1643,-0.480612 c -1.3155,-3.61633 -4.1936,-6.492547 -8.48363,-8.591794 z"
       style="display:inline;opacity:1;fill:#26c7d9;stroke:#26c7d9;stroke-width:1.90974;stroke-linecap:round;stroke-linejoin:round;stroke-miterlimit:1;stroke-opacity:1"
       id="path122"
       sodipodi:nodetypes="csccccssccsc"
       inkscape:label="ring" /><rect
       style="display:inline;fill:#26c7d9;fill-opacity:1;stroke:#26c7d9;stroke-width:2.26567;stroke-linecap:round;stroke-linejoin:bevel;stroke-miterlimit:1;stroke-dasharray:none;stroke-opacity:1"
       id="rect122"
       width="23.918182"
       height="24.939934"
       x="225.42639"
       y="41.7701"
       ry="5.6340203"
       inkscape:label="bit-3" /><rect
       style="display:inline;fill:#26c7d9;fill-opacity:1;stroke:#26c7d9;stroke-width:1.7321;stroke-linecap:round;stroke-linejoin:bevel;stroke-miterlimit:1;stroke-dasharray:none;stroke-opacity:1"
       id="rect123"
       width="18.28532"
       height="19.066446"
       x="198.88646"
       y="43.261169"
       ry="4.307178"
       inkscape:label="bit-2" /><rect
       style="display:inline;fill:#26c7d9;fill-opacity:1;stroke:#26c7d9;stroke-width:1.3408;stroke-linecap:round;stroke-linejoin:bevel;stroke-miterlimit:1;stroke-dasharray:none;stroke-opacity:1"
       id="rect124"
       width="14.154557"
       height="14.759218"
       x="176.25737"
       y="54.423111"
       ry="3.3341603"
       inkscape:label="bit-1" /></g><g
     inkscape:groupmode="layer"
     id="g121"
     inkscape:label="orbitbits-light__transparent"
     style="display:inline"><path
       d="m 137.70595,61.247163 a 82.03918,83.147827 0 0 0 -83.043259,81.865887 82.03918,83.147827 0 0 0 80.526269,84.40963 82.03918,83.147827 0 0 0 83.52401,-81.36279 l 0.0148,-0.99129 A 82.03918,83.147827 0 0 0 137.70588,61.247163 Z m -0.68247,34.038469 a 47.323385,47.962895 0 0 1 46.73639,48.408658 l -0.007,0.57229 A 47.323385,47.962895 0 0 1 135.57178,191.19944 47.323385,47.962895 0 0 1 89.121184,142.50876 47.323385,47.962895 0 0 1 137.02378,95.285632 Z"
       style="display:inline;fill:#ffffff;fill-opacity:1;stroke:none;stroke-width:2.88032;stroke-linecap:round;stroke-linejoin:bevel;stroke-miterlimit:1;stroke-opacity:1"
       id="path118"
       inkscape:label="O" /><path
       d="m 255.44099,51.425428 c -0.58709,6.070318 2.32467,21.149813 -4.80163,21.179693 l -18.38285,0.07708 c -0.28812,0.02941 -0.57442,0.03977 -0.85723,0.03207 3.20349,16.294643 -33.31462,46.218959 -83.09189,67.770969 -46.17129,22.91584 -151.3376032,40.16018 -96.406886,-23.65177 0.07215,-0.0823 -52.2397681,37.62782 -46.1304844,55.50872 C 13.362127,194.56308 77.0973,187.60582 148.27995,156.78597 219.4631,125.96592 271.25688,82.902531 264.08892,60.497834 l -0.1643,-0.480612 c -1.3155,-3.61633 -4.1936,-6.492547 -8.48363,-8.591794 z"
       style="display:inline;opacity:1;fill:#26c7d9;stroke:#26c7d9;stroke-width:1.90974;stroke-linecap:round;stroke-linejoin:round;stroke-miterlimit:1;stroke-opacity:1"
       id="path119"
       sodipodi:nodetypes="csccccssccsc"
       inkscape:label="ring" /><rect
       style="display:inline;fill:#26c7d9;fill-opacity:1;stroke:#26c7d9;stroke-width:2.26567;stroke-linecap:round;stroke-linejoin:bevel;stroke-miterlimit:1;stroke-dasharray:none;stroke-opacity:1"
       id="rect119"
       width="23.918182"
       height="24.939934"
       x="225.42639"
       y="41.7701"
       ry="5.6340203"
       inkscape:label="bit-3" /><rect
       style="display:inline;fill:#26c7d9;fill-opacity:1;stroke:#26c7d9;stroke-width:1.7321;stroke-linecap:round;stroke-linejoin:bevel;stroke-miterlimit:1;stroke-dasharray:none;stroke-opacity:1"
       id="rect120"
       width="18.28532"
       height="19.066446"
       x="198.88646"
       y="43.261169"
       ry="4.307178"
       inkscape:label="bit-2" /><rect
       style="display:inline;fill:#26c7d9;fill-opacity:1;stroke:#26c7d9;stroke-width:1.3408;stroke-linecap:round;stroke-linejoin:bevel;stroke-miterlimit:1;stroke-dasharray:none;stroke-opacity:1"
       id="rect121"
       width="14.154557"
       height="14.759218"
       x="176.25737"
       y="54.423111"
       ry="3.3341603"
       inkscape:label="bit-1" /></g><metadata
     id="metadata1"><rdf:RDF><cc:Work
         rdf:about=""><dc:creator><cc:Agent><dc:title>William C. Canin</dc:title></cc:Agent></dc:creator><dc:rights><cc:Agent><dc:title>© 2026 William C. Canin. Unauthorized use prohibited.</dc:title></cc:Agent></dc:rights><dc:publisher><cc:Agent><dc:title>William C. Canin</dc:title></cc:Agent></dc:publisher><dc:title>OrbitBits</dc:title></cc:Work></rdf:RDF></metadata></svg>
